<svg width="14" height="14" viewBox="0 0 14 14" fill="none" xmlns="http://www.w3.org/2000/svg">
<path d="M6.99999 0.583496C9.73841 0.583496 11.9583 2.80341 11.9583 5.54183C11.9583 7.28341 11.1546 9.04453 9.81095 10.763C9.33407 11.3729 8.81544 11.9416 8.28412 12.4595C8.24034 12.5022 8.1973 12.5438 8.15503 12.5842L7.91123 12.8129L7.68868 13.0134L7.4899 13.1851L7.3685 13.2857C7.15547 13.4593 6.85017 13.4607 6.63559 13.289L6.50866 13.1839L6.31078 13.013L6.08864 12.8128L5.84494 12.5842L5.71587 12.4595C5.18454 11.9416 4.66591 11.3729 4.18903 10.763C2.84537 9.04453 2.04166 7.28341 2.04166 5.54183C2.04166 2.80341 4.26157 0.583496 6.99999 0.583496ZM6.99999 1.75016C4.9059 1.75016 3.20832 3.44774 3.20832 5.54183C3.20832 6.97458 3.90995 8.51201 5.1081 10.0444C5.55047 10.6101 6.03437 11.1407 6.53025 11.6242L6.76517 11.8489C6.84257 11.9215 6.92008 11.9942 6.99999 12.0641L7.23478 11.8489L7.46973 11.6242C7.96561 11.1407 8.44952 10.6101 8.89188 10.0444C10.09 8.51201 10.7917 6.97458 10.7917 5.54183C10.7917 3.44774 9.09408 1.75016 6.99999 1.75016ZM6.99999 3.2085C8.28865 3.2085 9.33332 4.25317 9.33332 5.54183C9.33332 6.83049 8.28865 7.87516 6.99999 7.87516C5.71133 7.87516 4.66666 6.83049 4.66666 5.54183C4.66666 4.25317 5.71133 3.2085 6.99999 3.2085ZM6.99999 4.37516C6.35566 4.37516 5.83332 4.8975 5.83332 5.54183C5.83332 6.18616 6.35566 6.7085 6.99999 6.7085C7.64432 6.7085 8.16666 6.18616 8.16666 5.54183C8.16666 4.8975 7.64432 4.37516 6.99999 4.37516Z" fill="#E94057"/>
</svg>
