<svg width="14" height="14" viewBox="0 0 14 14" fill="none" xmlns="http://www.w3.org/2000/svg">
<path d="M7.00002 0.583252C9.73844 0.583252 11.9584 2.80316 11.9584 5.54158C11.9584 7.28317 11.1546 9.04429 9.81099 10.7628C9.3341 11.3727 8.81547 11.9413 8.28415 12.4593C8.24037 12.502 8.19733 12.5435 8.15507 12.5839L7.91126 12.8126L7.68871 13.0132L7.48993 13.1849L7.36853 13.2854C7.15551 13.459 6.8502 13.4604 6.63562 13.2888L6.50869 13.1837L6.31081 13.0128L6.08867 12.8125L5.84497 12.5839L5.7159 12.4593C5.18457 11.9413 4.66594 11.3727 4.18906 10.7628C2.8454 9.04429 2.04169 7.28317 2.04169 5.54158C2.04169 2.80316 4.2616 0.583252 7.00002 0.583252ZM7.00002 1.74992C4.90593 1.74992 3.20835 3.4475 3.20835 5.54158C3.20835 6.97434 3.90998 8.51176 5.10813 10.0441C5.5505 10.6099 6.0344 11.1405 6.53028 11.6239L6.76521 11.8486C6.8426 11.9213 6.92011 11.994 7.00002 12.0638L7.23481 11.8487L7.46976 11.6239C7.96565 11.1405 8.44955 10.6099 8.89191 10.0441C10.0901 8.51176 10.7917 6.97434 10.7917 5.54158C10.7917 3.4475 9.09411 1.74992 7.00002 1.74992ZM7.00002 3.20825C8.28868 3.20825 9.33335 4.25292 9.33335 5.54158C9.33335 6.83025 8.28868 7.87492 7.00002 7.87492C5.71136 7.87492 4.66669 6.83025 4.66669 5.54158C4.66669 4.25292 5.71136 3.20825 7.00002 3.20825ZM7.00002 4.37492C6.35569 4.37492 5.83335 4.89726 5.83335 5.54158C5.83335 6.18591 6.35569 6.70825 7.00002 6.70825C7.64435 6.70825 8.16669 6.18591 8.16669 5.54158C8.16669 4.89726 7.64435 4.37492 7.00002 4.37492Z" fill="white"/>
</svg>
